<?xml version="1.0" encoding="UTF-8"?>
<svg id="SVGDoc" width="46" height="62" xmlns="http://www.w3.org/2000/svg" version="1.1" xmlns:xlink="http://www.w3.org/1999/xlink" xmlns:avocode="https://avocode.com/" viewBox="0 0 46 62"><defs></defs><desc>Generated with Avocode.</desc><g><g><title>Group 234</title><g><title>Group 233</title><g><title>Path 376</title><path d="M19.31389,8.37029v0l0.55911,-0.17066c0.09752,-0.02926 9.69666,-2.85244 13.6283,4.28435l-3.38229,1.86099v0l-4.56228,-2.50462c0.603,-0.20967 1.26288,-0.40633 1.98777,-0.58512c0.52335,-0.1284 0.84191,-0.65663 0.71352,-1.17998c-0.1284,-0.52335 -0.65663,-0.84192 -1.17999,-0.71352c-1.61882,0.39983 -2.96946,0.89068 -4.0958,1.43028c-0.07802,0.026 -0.15279,0.06339 -0.22105,0.1089c-5.36031,2.6704 -5.43507,6.46877 -5.43507,6.66381c0,0.53798 0.43722,0.9817 0.9752,0.9817c0.53799,0 0.97519,-0.42908 0.97519,-0.96869c0.00163,-0.04551 0.01626,-0.3657 0.18366,-0.84842l3.8894,2.75817c-2.89632,1.24987 -3.76424,4.93122 -4.54765,8.25663c-0.40796,1.73585 -0.83054,3.52857 -1.50342,4.97348c-2.10155,4.51677 -5.50009,5.58298 -5.65775,5.63012c-0.51522,0.14953 -0.81266,0.68751 -0.66638,1.20436c0.1219,0.42908 0.51198,0.70701 0.93781,0.70701c0.0894,0 0.17879,-0.013 0.26818,-0.03738c0.17716,-0.05038 4.38674,-1.30676 6.88648,-6.68169c0.75578,-1.62532 1.20274,-3.51882 1.63345,-5.34893c1.04834,-4.45176 1.8545,-7.1953 4.96373,-7.1953c0.03577,0 0.06989,0 0.10565,0.00163l3.16776,0.06176v0l-8.49231,-6.02344c0.59325,-0.71677 1.49042,-1.49692 2.84269,-2.21694l6.83447,3.75286v0l10.88477,-5.99256c0.47134,-0.26005 0.64363,-0.85329 0.38358,-1.32464c-0.26006,-0.47134 -0.8533,-0.64363 -1.32465,-0.38358l-4.85646,2.67365c-1.926,-3.50094 -5.24815,-5.51471 -9.6414,-5.8349c-2.50137,-0.18204 -4.68581,0.23405 -5.687,0.47297l-5.45295,-5.4562c-0.38033,-0.38033 -0.99795,-0.38033 -1.37991,0c-0.38032,0.38033 -0.38032,0.99795 0,1.37827z" fill="#23376e" fill-opacity="1"></path></g><g><title>Path 377</title><path d="M45.24263,41.51058c-2.15355,-12.81403 -8.62558,-19.95894 -10.55483,-21.84431c0.10727,-0.05851 0.21292,-0.11702 0.32507,-0.17391l0.03088,-0.01625c5.79589,-3.23764 7.80967,-3.7675 7.82267,-3.77075c0.52498,-0.12352 0.85004,-0.6485 0.72652,-1.17185c-0.12352,-0.52498 -0.6485,-0.84842 -1.17186,-0.72652c-0.08614,0.02113 -2.1893,0.53798 -8.31189,3.95765c-2.94345,1.51318 -4.70205,3.58384 -5.22703,6.15672c-1.01258,4.9556 3.01172,9.8592 3.18238,10.06562c0.19341,0.23079 0.46972,0.35107 0.74927,0.35107c0.21942,0 0.44046,-0.07314 0.6225,-0.22429c0.41446,-0.34457 0.47134,-0.95894 0.1284,-1.3734c-0.03576,-0.04389 -3.59846,-4.403 -2.77117,-8.43542c0.2763,-1.34089 1.02558,-2.51925 2.23481,-3.5237c1.10847,1.03858 8.10711,8.04534 10.29316,21.05278c1.29701,7.7219 0.70214,12.90341 -1.76997,15.40316c-1.76998,1.78948 -4.57853,2.35509 -8.58495,1.72609c-6.08357,-0.95244 -26.2343,-5.41719 -30.20659,-22.87476c-1.21086,-6.36313 5.37656,-12.74902 8.68246,-15.49906c-0.33969,2.73542 -0.32994,5.62849 0.42583,8.24688c0.12353,0.42746 0.5136,0.70539 0.93618,0.70539c0.08939,0 0.18041,-0.013 0.27143,-0.03901c0.51685,-0.14953 0.81591,-0.69076 0.66638,-1.20761c-0.94269,-3.26365 -0.58349,-7.07665 0.12515,-10.35004c0.3852,-0.05038 0.72002,-0.32832 0.81916,-0.72815c0.10077,-0.40471 -0.06826,-0.81429 -0.39333,-1.03858c0.34944,-1.31326 0.72977,-2.48837 1.06784,-3.4343c1.74559,-4.90197 -5.38469,-9.17819 -5.68862,-9.3586c-0.46322,-0.27305 -1.06133,-0.12027 -1.33439,0.34294c-0.27468,0.46322 -0.12027,1.06133 0.34294,1.33601c1.68708,0.99957 5.84628,4.20958 4.84346,7.02464c-0.30231,0.85167 -0.64038,1.87887 -0.95894,3.02472c-1.57006,-1.38152 -3.68948,-3.99991 -5.0645,-5.9503c-0.31044,-0.44046 -0.91831,-0.54611 -1.35877,-0.23567c-0.44046,0.31044 -0.54611,0.9183 -0.23567,1.35877c0.67613,0.96056 3.67322,5.11001 6.13884,6.88486c-0.04226,0.18529 -0.08289,0.3722 -0.1219,0.56074c-0.60787,0.43884 -2.36809,1.7586 -4.32173,3.67973c-0.655,-5.01087 -5.13764,-8.64508 -5.35868,-8.82224c-0.42096,-0.33481 -1.0337,-0.26655 -1.36852,0.15441c-0.33644,0.42096 -0.26818,1.0337 0.15278,1.37015c0.05364,0.04226 5.24491,4.27297 4.64679,9.34397c-3.01822,3.48144 -5.76339,8.15099 -4.82883,13.01557l0.0065,0.03251c1.70821,7.52848 6.3225,13.60231 13.71608,18.05568c6.8231,4.11044 14.26707,5.73089 18.09632,6.33064c1.15236,0.1804 2.22344,0.27143 3.21976,0.27143c3.04098,0 5.36518,-0.84518 7.05389,-2.55338c2.97759,-3.01498 3.73174,-8.6077 2.3047,-17.1z" fill="#23376e" fill-opacity="1"></path></g></g><g><title>Path 378</title><path d="M22.86684,50.44821v0c0,0 8.73772,6.31924 12.87254,4.68091c4.13483,-1.63834 3.74475,-3.97876 0.70215,-3.82275c-3.0426,0.15607 -10.92216,0.39008 -13.57469,-0.85815z" fill="#ffffff" fill-opacity="1"></path></g></g></g></svg>