<?xml version="1.0" encoding="UTF-8"?>
<svg id="SVGDoc" width="68" height="55" xmlns="http://www.w3.org/2000/svg" version="1.1" xmlns:xlink="http://www.w3.org/1999/xlink" xmlns:avocode="https://avocode.com/" viewBox="0 0 68 55"><defs><clipPath id="clip-718f46dd-7627-446b-8872-7afc80e996f2"><path d="M0.34326,54.2926v0v-54.17298v0h67.31297v0v54.17298v0z" ></path></clipPath></defs><desc>Generated with Avocode.</desc><g><g><title>Group 418</title><g><title>Group 417</title><g><title>Rectangle 307</title></g><g clip-path="url(#clip-718f46dd-7627-446b-8872-7afc80e996f2)"><title>Path 578</title><path d="M37.03825,50.4501c-5.697,0 -9.15499,-3.214 -9.739,-9.049c-0.612,-6.118 1.445,-11.24099 2.49,-13.38599h-28.03299v0v6.928c0,0.39 -0.316,0.706 -0.706,0.706c-0.39,0 -0.707,-0.316 -0.707,-0.706v-7.634c0,-0.389 0.317,-0.706 0.707,-0.706h29.91199c0.254,0 0.489,0.137 0.614,0.358c0.126,0.221 0.122,0.493 -0.008,0.712c-0.036,0.06 -3.608,6.136 -2.863,13.588c0.643,6.427 4.886,7.777 8.333,7.777c1.834,0 7.416,0 8.48899,-10.583c0.147,-6.263 -1.502,-10.858 -1.518,-10.90199c-0.079,-0.217 -0.048,-0.459 0.084,-0.648c0.132,-0.189 0.348,-0.302 0.579,-0.302h22.27799c0.39,0 0.707,0.317 0.707,0.706v6.7c0,0.389 -0.317,0.706 -0.707,0.706c-0.39,0 -0.706,-0.317 -0.706,-0.706v-5.994v0h-20.60599c0.497,1.709 1.416,5.57899 1.298,10.528c-0.801,7.91999 -4.13,11.90699 -9.89799,11.90699" fill="#23376e" fill-opacity="1"></path></g><g clip-path="url(#clip-718f46dd-7627-446b-8872-7afc80e996f2)"><title>Path 579</title><path d="M32.47625,6.20011c0.954,3.014 1.823,7.46 2.12,13.94799c0.165,3.61 -0.257,7.204 -1.254,10.686c-1.162,4.057 -2.918,10.188 -0.805,13.06199c0.846,1.152 2.262,1.735 4.327,1.783c1.987,0.052 3.31,-1.054 4.069,-3.369c2.657,-8.09499 -2.672,-26.74999 -8.457,-36.10998M36.98025,47.0941c-0.05,0 -0.1,-0.001 -0.15,-0.002c-2.496,-0.059 -4.324,-0.853 -5.431,-2.359c-2.332,-3.17 -1.054,-8.56699 0.585,-14.28799c0.955,-3.334 1.359,-6.776 1.201,-10.23199c-0.712,-15.53399 -4.73199,-18.78899 -4.77299,-18.82099c-0.305,-0.233 -0.372,-0.671 -0.144,-0.981c0.227,-0.31 0.655,-0.384 0.969,-0.165c7.366,5.156 16.53299,31.85699 13.03799,42.50598c-1.16999,3.565 -3.494,4.342 -5.29499,4.342" fill="#23376e" fill-opacity="1"></path></g><g clip-path="url(#clip-718f46dd-7627-446b-8872-7afc80e996f2)"><title>Path 580</title><path d="M8.11226,41.9851c-0.67,0 -1.215,0.545 -1.215,1.215c0,0.67 0.545,1.216 1.215,1.216c0.67,0 1.216,-0.546 1.216,-1.216c0,-0.67 -0.546,-1.215 -1.216,-1.215M8.11226,45.8281c-1.449,0 -2.628,-1.179 -2.628,-2.628c0,-1.448 1.179,-2.627 2.628,-2.627c1.449,0 2.628,1.179 2.628,2.627c0,1.449 -1.179,2.628 -2.628,2.628" fill="#23376e" fill-opacity="1"></path></g><g clip-path="url(#clip-718f46dd-7627-446b-8872-7afc80e996f2)"><title>Path 581</title><path d="M20.03025,39.5281c-0.67,0 -1.215,0.545 -1.215,1.215c0,0.66999 0.545,1.216 1.215,1.216c0.67,0 1.215,-0.546 1.215,-1.216c0,-0.67 -0.545,-1.215 -1.215,-1.215M20.03025,43.3711c-1.449,0 -2.628,-1.179 -2.628,-2.62799c0,-1.448 1.179,-2.627 2.628,-2.627c1.449,0 2.628,1.179 2.628,2.627c0,1.44899 -1.179,2.62799 -2.628,2.62799" fill="#23376e" fill-opacity="1"></path></g><g clip-path="url(#clip-718f46dd-7627-446b-8872-7afc80e996f2)"><title>Path 582</title><path d="M16.57125,47.0921c-0.67,0 -1.215,0.546 -1.215,1.216c0,0.67 0.545,1.216 1.215,1.216c0.669,0 1.216,-0.546 1.216,-1.216c0,-0.67 -0.547,-1.216 -1.216,-1.216M16.57125,50.9361c-1.449,0 -2.627,-1.179 -2.627,-2.628c0,-1.449 1.178,-2.628 2.627,-2.628c1.449,0 2.627,1.179 2.627,2.628c0,1.449 -1.178,2.628 -2.627,2.628" fill="#23376e" fill-opacity="1"></path></g><g clip-path="url(#clip-718f46dd-7627-446b-8872-7afc80e996f2)"><title>Path 583</title><path d="M50.94324,50.45009c-0.66999,0 -1.215,0.545 -1.215,1.215c0,0.67 0.545,1.216 1.215,1.216c0.67,0 1.215,-0.546 1.215,-1.216c0,-0.67 -0.545,-1.215 -1.215,-1.215M50.94324,54.29309c-1.44899,0 -2.62799,-1.179 -2.62799,-2.628c0,-1.44799 1.179,-2.627 2.62799,-2.627c1.449,0 2.628,1.179 2.628,2.627c0,1.449 -1.179,2.628 -2.628,2.628" fill="#23376e" fill-opacity="1"></path></g><g clip-path="url(#clip-718f46dd-7627-446b-8872-7afc80e996f2)"><title>Path 584</title><path d="M54.78624,40.0661c-0.67,0 -1.216,0.545 -1.216,1.215c0,0.67 0.546,1.216 1.216,1.216c0.67,0 1.215,-0.546 1.215,-1.216c0,-0.66999 -0.545,-1.215 -1.215,-1.215M54.78624,43.9091c-1.449,0 -2.628,-1.179 -2.628,-2.628c0,-1.44799 1.179,-2.627 2.628,-2.627c1.449,0 2.628,1.179 2.628,2.627c0,1.449 -1.179,2.628 -2.628,2.628" fill="#23376e" fill-opacity="1"></path></g><g clip-path="url(#clip-718f46dd-7627-446b-8872-7afc80e996f2)"><title>Path 585</title><path d="M61.95923,48.5281c-0.67,0 -1.215,0.546 -1.215,1.216c0,0.66999 0.545,1.215 1.215,1.215c0.67,0 1.215,-0.545 1.215,-1.215c0,-0.67 -0.545,-1.216 -1.215,-1.216M61.95923,52.37109c-1.449,0 -2.628,-1.179 -2.628,-2.627c0,-1.449 1.179,-2.628 2.628,-2.628c1.449,0 2.62799,1.179 2.62799,2.628c0,1.44799 -1.179,2.627 -2.62799,2.627" fill="#23376e" fill-opacity="1"></path></g><g clip-path="url(#clip-718f46dd-7627-446b-8872-7afc80e996f2)"><title>Path 586</title><path d="M64.66822,39.5281c-0.66999,0 -1.21499,0.545 -1.21499,1.215c0,0.66999 0.545,1.216 1.21499,1.216c0.67001,0 1.215,-0.546 1.215,-1.216c0,-0.67 -0.545,-1.215 -1.215,-1.215M64.66822,43.3711c-1.44899,0 -2.62799,-1.179 -2.62799,-2.62799c0,-1.448 1.179,-2.627 2.62799,-2.627c1.44901,0 2.62801,1.179 2.62801,2.627c0,1.44899 -1.179,2.62799 -2.62801,2.62799" fill="#23376e" fill-opacity="1"></path></g><g clip-path="url(#clip-718f46dd-7627-446b-8872-7afc80e996f2)"><title>Path 587</title><path d="M35.09125,31.4891v0c0,0 -5.152,10.96299 0,12.23999c5.152,1.277 -2.52,-4.44 0,-12.23999" fill="#ffffff" fill-opacity="1"></path></g></g></g></g></svg>