<?xml version="1.0" encoding="UTF-8"?>
<svg id="SVGDoc" width="58" height="62" xmlns="http://www.w3.org/2000/svg" version="1.1" xmlns:xlink="http://www.w3.org/1999/xlink" xmlns:avocode="https://avocode.com/" viewBox="0 0 58 62"><defs><clipPath id="clip-394e6225-0bde-49f9-ba45-eb94e829d042"><path d="M0.77649,61.1382v0v-61.01877v0h57.18923v0v61.01877v0z" ></path></clipPath></defs><desc>Generated with Avocode.</desc><g><g><title>Group 410</title><g><title>Group 409</title><g><title>Rectangle 303</title></g><g clip-path="url(#clip-394e6225-0bde-49f9-ba45-eb94e829d042)"><title>Path 535</title><path d="M23.79242,60.61942c-0.25287,-2.97927 -0.95076,-5.93314 -1.5327,-6.62109c-2.63806,1.04462 -10.23311,2.82468 -13.4509,0.56538c-1.04131,-0.73102 -1.53049,-1.82533 -1.41344,-3.16258l0.02981,-0.1557c0.66034,-2.20298 0.55986,-4.19505 0.55875,-4.21603l-0.04417,-0.78844v0l0.78954,-0.03423c0.05742,-0.0022 5.76972,-0.23189 12.32898,0c6.22136,0.22196 12.09819,0.43287 12.66246,5.65046c0.4671,4.32425 0.82377,8.58887 0.82709,8.63194l-1.55368,0.1292c-0.00331,-0.04196 -0.35888,-4.28892 -0.82488,-8.59219c-0.39091,-3.61533 -4.47885,-4.02169 -11.1662,-4.26021c-5.1149,-0.1822 -9.70859,-0.0773 -11.45883,-0.02539c-0.02429,0.8558 -0.14135,2.30568 -0.60071,3.87151c-0.04638,0.74427 0.19656,1.27762 0.76193,1.67405c2.52432,1.77564 9.87091,0.24625 12.29585,-0.87346l0.26281,-0.12036v0l0.27827,0.07951c1.95784,0.55875 2.61266,5.86247 2.8037,8.11625z" fill="#23376e" fill-opacity="1"></path></g><g clip-path="url(#clip-394e6225-0bde-49f9-ba45-eb94e829d042)"><title>Path 536</title><path d="M48.43381,61.13842c-0.82046,-0.72549 -1.41565,-4.70743 -1.67957,-11.20927c0.17116,-5.65377 2.66346,-10.05312 5.07404,-14.3078c3.28957,-5.80505 6.39583,-11.28767 3.31387,-19.34208c-5.62617,-14.70533 -19.92072,-15.71793 -30.92238,-13.97873c-12.19536,1.93023 -15.25856,12.86896 -14.99354,16.63446c0.3125,4.45787 0.31582,7.41837 0.31582,7.44708v0.30477v0l-6.87287,7.4802c-0.30036,0.32686 -0.40416,0.75972 -0.2849,1.18707c0.12036,0.42734 0.43287,0.74316 0.85911,0.86684l4.57823,1.32952v0l0.92757,3.23988v0l18.6696,0.3125c5.57647,0.09276 10.20329,4.16856 11.00166,9.68982l1.39246,9.65006v0l-1.54375,0.22196v0l-1.39357,-9.65006c-0.68684,-4.75933 -4.6754,-8.27085 -9.48332,-8.35146l-19.82354,-0.33238v0l-1.01039,-3.52367v0l-3.75004,-1.08769c-0.94193,-0.27386 -1.6619,-1.00045 -1.92582,-1.94569c-0.26392,-0.94303 -0.0254,-1.93907 0.63826,-2.66125l6.45988,-7.03077c-0.00994,-0.85359 -0.05963,-3.44968 -0.3114,-7.03629c-0.37876,-5.41636 4.01396,-16.34073 16.3076,-18.28531c16.35397,-2.58837 27.9409,2.72529 32.62292,14.96262c3.34368,8.74016 -0.09165,14.80361 -3.41324,20.66718c-2.31783,4.09015 -4.71405,8.31944 -4.87196,13.53151c0.35115,8.66949 1.20695,10.09066 1.24339,10.14698l-0.41409,0.26612v0z" fill="#23376e" fill-opacity="1"></path></g><g clip-path="url(#clip-394e6225-0bde-49f9-ba45-eb94e829d042)"><title>Path 537</title><path d="M29.37442,44.63537c0,0.42956 -0.34894,0.7785 -0.7785,0.7785c-0.42955,0 -0.7785,-0.34895 -0.7785,-0.7785c0,-0.42955 0.34894,-0.7785 0.7785,-0.7785c0.42955,0 0.7785,0.34895 0.7785,0.7785" fill="#ffffff" fill-opacity="1"></path></g><g clip-path="url(#clip-394e6225-0bde-49f9-ba45-eb94e829d042)"><title>Path 538</title><path d="M32.15713,45.41387c0,0.42956 -0.34894,0.7785 -0.7785,0.7785c-0.42955,0 -0.7785,-0.34894 -0.7785,-0.7785c0,-0.42955 0.34894,-0.7785 0.7785,-0.7785c0.42955,0 0.7785,0.34895 0.7785,0.7785" fill="#ffffff" fill-opacity="1"></path></g><g clip-path="url(#clip-394e6225-0bde-49f9-ba45-eb94e829d042)"><title>Path 539</title><path d="M33.71413,47.66103c0,0.42955 -0.34894,0.7785 -0.7785,0.7785c-0.42956,0 -0.7785,-0.34894 -0.7785,-0.7785c0,-0.42955 0.34894,-0.7785 0.7785,-0.7785c0.42955,0 0.7785,0.34895 0.7785,0.7785" fill="#ffffff" fill-opacity="1"></path></g><g clip-path="url(#clip-394e6225-0bde-49f9-ba45-eb94e829d042)"><title>Path 540</title><path d="M35.90055,48.43952c0,0.42955 -0.34894,0.7785 -0.7785,0.7785c-0.42955,0 -0.7785,-0.34895 -0.7785,-0.7785c0,-0.42955 0.34895,-0.7785 0.7785,-0.7785c0.42955,0 0.7785,0.34894 0.7785,0.7785" fill="#ffffff" fill-opacity="1"></path></g><g clip-path="url(#clip-394e6225-0bde-49f9-ba45-eb94e829d042)"><title>Path 541</title><path d="M53.00762,17.93455v0c0,0 -5.95192,-10.31261 -10.85922,-10.52905c-4.90619,-0.21643 -5.56985,2.31893 -2.43156,3.53582c3.13939,1.21799 11.18056,4.53737 13.29078,6.99323" fill="#ffffff" fill-opacity="1"></path></g></g></g></g></svg>