<?xml version="1.0" encoding="UTF-8"?>
<svg id="SVGDoc" width="57" height="72" xmlns="http://www.w3.org/2000/svg" version="1.1" xmlns:xlink="http://www.w3.org/1999/xlink" xmlns:avocode="https://avocode.com/" viewBox="0 0 57 72"><defs></defs><desc>Generated with Avocode.</desc><g><g><title>Group 236</title><g><title>Path 385</title><path d="M2.2775,65.13473c-0.63167,0 -1.15806,-0.4966 -1.18984,-1.13422c-0.00199,-0.05959 -0.29001,-6.02667 -0.57208,-13.3842v-0.02384c-0.0735,-3.8933 0.79455,-6.51134 2.64983,-8.0051c2.67168,-2.15125 6.59477,-1.21765 9.45912,-0.53632c0.67537,0.16089 1.31299,0.31186 1.84733,0.40323c6.72388,0.87599 11.49119,-0.38933 14.1728,-3.75822c3.21396,-4.0383 2.47105,-9.96565 1.8374,-11.66598c-0.49461,-1.3269 -2.02014,-3.00936 -3.49603,-4.63422c-2.35981,-2.60017 -4.79909,-5.28972 -4.94409,-8.16401c-0.18871,-3.71453 -0.00795,-11.82887 -0.00199,-12.17252c0.0139,-0.64955 0.54427,-1.166 1.19183,-1.166c0.00993,0 0.01788,0 0.02781,0c0.65749,0.0139 1.17991,0.56016 1.16402,1.21765c-0.00199,0.08343 -0.18473,8.37059 -0.00199,11.99771c0.10131,2.02412 2.34789,4.49914 4.32831,6.68217c1.70233,1.87514 3.30931,3.64699 3.9648,5.40493c0.92764,2.49091 1.61095,9.18699 -2.20686,13.9821c-3.24177,4.07207 -8.74999,5.63137 -16.36973,4.63421l-0.0437,-0.00596c-0.61578,-0.10528 -1.29909,-0.26617 -2.02213,-0.43899c-2.51674,-0.59988 -5.64925,-1.34478 -7.41117,0.07349c-1.22361,0.98524 -1.81753,3.03519 -1.76192,6.09222c0.28207,7.33967 0.5681,13.28886 0.57208,13.34845c0.03178,0.65749 -0.47474,1.21567 -1.13223,1.24745c-0.02383,0.00596 -0.04369,0.00596 -0.06157,0.00596z" fill="#23376e" fill-opacity="1"></path></g><g><title>Path 386</title><path d="M7.92079,71.23687c-0.07548,0 -0.15096,-0.00795 -0.22645,-0.02185c-0.64557,-0.12514 -1.06867,-0.74886 -0.94551,-1.39642c0.00795,-0.04568 0.8899,-4.77326 0.1609,-10.81383c-0.53235,-4.40976 0.19069,-7.1152 0.8899,-8.61094c0.25624,-0.54625 0.76476,-0.92764 1.36067,-1.021c0.5979,-0.09534 1.19977,0.11521 1.61095,0.56016c6.64642,7.17082 16.45315,9.53659 26.23408,6.32661c9.35384,-3.07093 16.2267,-10.30532 17.1027,-18.00451l0.00199,-0.02185c0.86606,-6.50936 -0.18672,-11.49715 -3.12656,-14.82035c-3.56951,-4.03632 -8.93869,-4.42763 -11.08,-4.40181c-5.08314,0.05562 -7.79057,-1.56129 -9.16514,-2.92196c-1.27525,-1.26334 -1.97843,-2.8584 -1.97843,-4.4912v-9.51077c0,-0.65749 0.53434,-1.19183 1.19183,-1.19183c0.65749,0 1.19183,0.53434 1.19183,1.19183v9.51077c0,0.57406 0.16487,1.70034 1.27127,2.79682c1.0508,1.04086 3.1941,2.27639 7.4648,2.23269c5.21425,-0.04569 9.91599,1.84733 12.88762,5.20629c3.41656,3.86152 4.66203,9.48097 3.70459,16.70145c-0.98326,8.603 -8.50765,16.63391 -18.72557,19.98891c-4.93416,1.61889 -10.05107,1.96055 -14.8005,0.98722c-5.08115,-1.04285 -9.55249,-3.49801 -13.30078,-7.3039c-0.39727,1.2256 -0.75482,3.31327 -0.36946,6.51333c0.77668,6.4299 -0.14699,11.3442 -0.18672,11.55078c-0.10727,0.57009 -0.60783,0.96538 -1.16799,0.96538z" fill="#23376e" fill-opacity="1"></path></g><g><title>Ellipse 20</title><path d="M36.88812,30.29964c0,-1.77721 1.44072,-3.21793 3.21793,-3.21793c1.77721,0 3.21793,1.44072 3.21793,3.21793c0,1.77721 -1.44072,3.21793 -3.21793,3.21793c-1.77721,0 -3.21793,-1.44072 -3.21793,-3.21793z" fill="#ffffff" fill-opacity="1"></path></g><g><title>Ellipse 21</title><path d="M43.15712,37.59362c0,-1.29013 1.04585,-2.33598 2.33598,-2.33598c1.29013,0 2.33598,1.04585 2.33598,2.33598c0,1.29013 -1.04585,2.33598 -2.33598,2.33598c-1.29013,0 -2.33598,-1.04585 -2.33598,-2.33598z" fill="#ffffff" fill-opacity="1"></path></g><g><title>Ellipse 22</title><path d="M34.55214,41.02608c0,-1.29013 1.04585,-2.33598 2.33598,-2.33598c1.29013,0 2.33598,1.04585 2.33598,2.33598c0,1.29013 -1.04585,2.33598 -2.33598,2.33598c-1.29013,0 -2.33598,-1.04585 -2.33598,-2.33598z" fill="#ffffff" fill-opacity="1"></path></g><g><title>Ellipse 23</title><path d="M39.2241,47.891c0,-1.29013 1.04585,-2.33598 2.33598,-2.33598c1.29013,0 2.33598,1.04585 2.33598,2.33598c0,1.29013 -1.04585,2.33598 -2.33598,2.33598c-1.29013,0 -2.33598,-1.04585 -2.33598,-2.33598z" fill="#ffffff" fill-opacity="1"></path></g><g><title>Ellipse 24</title><path d="M29.70538,47.891c0,-0.91274 0.73992,-1.65267 1.65267,-1.65267c0.91274,0 1.65267,0.73992 1.65267,1.65267c0,0.91274 -0.73992,1.65267 -1.65267,1.65267c-0.91274,0 -1.65267,-0.73992 -1.65267,-1.65267z" fill="#ffffff" fill-opacity="1"></path></g></g></g></svg>