<?xml version="1.0" encoding="UTF-8"?>
<svg id="SVGDoc" width="69" height="58" xmlns="http://www.w3.org/2000/svg" version="1.1" xmlns:xlink="http://www.w3.org/1999/xlink" xmlns:avocode="https://avocode.com/" viewBox="0 0 69 58"><defs><clipPath id="clip-72c63824-d685-4629-8c1a-8d5d9e5f5a83"><path d="M0.37891,58.00017v0v-57.982v0h67.937v0v57.982v0z" ></path></clipPath></defs><desc>Generated with Avocode.</desc><g><g><title>Group 400</title><g><title>Group 399</title><g><title>Rectangle 298</title></g><g clip-path="url(#clip-72c63824-d685-4629-8c1a-8d5d9e5f5a83)"><title>Path 479</title><path d="M7.88591,42.90207c-0.205,0 -0.413,-0.004 -0.626,-0.013c-7.345,-0.892 -7.044,-11.132 -6.778,-20.166c0.032,-1.09 0.064,-2.173 0.083,-3.23c0.17,-9.325 2.028,-11.428 5.107,-14.913l0.778,-0.885c3.595,-4.134 14.347,-3.751 18.941,-3.587l0.781,0.027c3.755,0.113 6.419,0.49 10.118,2.17c1.841,-1.646 6.59,-2.418 8.735,-2.093c1.559,0.235 5.046,0.138 7.848,0.058c1.276,-0.035 2.444,-0.068 3.31,-0.068c4.424,0 9.213,1.806 9.387,6.878c0.001,7.196 -5.401,13.529 -8.621,16.667l-1.236,-1.268c3.02,-2.943 8.086,-8.853 8.086,-15.369c-0.164,-4.765 -5.871,-5.137 -7.616,-5.137c-0.853,0 -2.004,0.033 -3.26,0.068c-3.022,0.086 -6.449,0.18 -8.162,-0.077c-2.275,-0.341 -6.879,0.802 -7.465,1.857l-0.405,0.727v0l-0.751,-0.359c-3.764,-1.8 -6.23,-2.17 -10.021,-2.284l-0.792,-0.026c-3.963,-0.14 -14.5,-0.517 -17.541,2.978l-0.787,0.896c-3,3.395 -4.506,5.099 -4.663,13.772c-0.019,1.065 -0.052,2.153 -0.084,3.251c-0.255,8.681 -0.519,17.658 5.151,18.35c3.478,0.137 5.729,-1.08 10.219,-3.503c0.779,-0.419 1.621,-0.874 2.545,-1.362c6.156,-3.25 10.124,-4.57 14.324,-5.967l0.799,-0.242c0.052,-0.004 5.254,-0.484 9.308,-1.229l0.32,1.742c-3.814,0.701 -8.604,1.17 -9.364,1.241l-0.503,0.168c-4.309,1.434 -8.029,2.672 -14.058,5.854c-0.918,0.485 -1.755,0.936 -2.53,1.354c-4.381,2.363 -6.897,3.72 -10.577,3.72" fill="#23376e" fill-opacity="1"></path></g><g clip-path="url(#clip-72c63824-d685-4629-8c1a-8d5d9e5f5a83)"><title>Path 480</title><path d="M34.57091,26.79707c-3.287,-6.852 -0.195,-19.791 -0.062,-20.338l1.721,0.418c-0.031,0.128 -3.075,12.872 -0.061,19.154z" fill="#23376e" fill-opacity="1"></path></g><g clip-path="url(#clip-72c63824-d685-4629-8c1a-8d5d9e5f5a83)"><title>Path 481</title><path d="M20.61791,45.11106c-3.626,0 -5.579,-3.125 -6.144,-5.011l1.698,-0.508v0l-0.849,0.254v0l0.848,-0.256c0.057,0.189 1.468,4.618 5.707,3.59c3.94,-0.951 10.549,-9.524 12.761,-12.747l1.461,1.002c-0.34,0.496 -8.402,12.162 -13.806,13.468c-0.594,0.143 -1.153,0.208 -1.676,0.208" fill="#23376e" fill-opacity="1"></path></g><g clip-path="url(#clip-72c63824-d685-4629-8c1a-8d5d9e5f5a83)"><title>Path 482</title><path d="M34.6179,58.00006c-5.552,-8.926 -5.979,-19.217 -5.994,-19.65l1.769,-0.064c0.004,0.102 0.433,10.265 5.729,18.778z" fill="#23376e" fill-opacity="1"></path></g><g clip-path="url(#clip-72c63824-d685-4629-8c1a-8d5d9e5f5a83)"><title>Path 483</title><path d="M32.37591,53.70206c-0.098,-0.487 -2.303,-12.015 6.293,-19.879l1.195,1.307c-7.843,7.176 -5.773,18.114 -5.752,18.223z" fill="#23376e" fill-opacity="1"></path></g><g clip-path="url(#clip-72c63824-d685-4629-8c1a-8d5d9e5f5a83)"><title>Path 484</title><path d="M55.38591,24.20407c-6.153,0 -11.159,5.006 -11.159,11.158c0,6.154 5.006,11.159 11.159,11.159c6.153,0 11.159,-5.005 11.159,-11.159c0,-6.152 -5.006,-11.158 -11.159,-11.158M55.38591,48.29307c-7.13,0 -12.931,-5.801 -12.931,-12.931c0,-7.13 5.801,-12.929 12.931,-12.929c7.13,0 12.931,5.799 12.931,12.929c0,7.13 -5.801,12.931 -12.931,12.931" fill="#23376e" fill-opacity="1"></path></g><g clip-path="url(#clip-72c63824-d685-4629-8c1a-8d5d9e5f5a83)"><title>Path 485</title><path d="M55.38591,41.91607c-3.906,0 -7.085,-3.179 -7.085,-7.085h1.772c0,2.93 2.383,5.314 5.313,5.314c1.33,0 2.602,-0.494 3.582,-1.389l1.195,1.308c-1.307,1.194 -3.005,1.852 -4.777,1.852" fill="#23376e" fill-opacity="1"></path></g><g clip-path="url(#clip-72c63824-d685-4629-8c1a-8d5d9e5f5a83)"><title>Path 486</title><path d="M62.44491,35.43507v0l-1.766,-0.148c0.013,-0.15 0.02,-0.302 0.02,-0.456c0,-2.929 -2.384,-5.313 -5.314,-5.313c-1.386,0 -2.697,0.53 -3.692,1.493l-1.232,-1.273c1.327,-1.284 3.076,-1.991 4.924,-1.991c3.907,0 7.085,3.178 7.085,7.084c0,0.205 -0.008,0.406 -0.025,0.604" fill="#23376e" fill-opacity="1"></path></g><g clip-path="url(#clip-72c63824-d685-4629-8c1a-8d5d9e5f5a83)"><title>Path 487</title><path d="M53.79151,31.83407v0l-3.327,-3.535v0l-1.455,4.491v0z" fill="#23376e" fill-opacity="1"></path></g><g clip-path="url(#clip-72c63824-d685-4629-8c1a-8d5d9e5f5a83)"><title>Path 488</title><path d="M57.10701,38.07697v0l2.991,3.823v0l1.859,-4.34v0z" fill="#23376e" fill-opacity="1"></path></g><g clip-path="url(#clip-72c63824-d685-4629-8c1a-8d5d9e5f5a83)"><title>Path 489</title><path d="M23.50991,5.27907v0c0,0 -13.137,-0.274 -16.145,4.235c-3.008,4.508 -0.994,6.583 1.949,4.316c2.943,-2.268 10.672,-7.962 14.196,-8.551" fill="#ffffff" fill-opacity="1"></path></g></g></g></g></svg>