<?xml version="1.0" encoding="UTF-8"?>
<svg id="SVGDoc" width="54" height="55" xmlns="http://www.w3.org/2000/svg" version="1.1" xmlns:xlink="http://www.w3.org/1999/xlink" xmlns:avocode="https://avocode.com/" viewBox="0 0 54 55"><defs><clipPath id="clip-bb13f9be-3e4a-41e1-856a-208e7c01d29a"><path d="M0.03625,55.01225v0v-54.57166v0h53.92783v0v54.57166v0z" ></path></clipPath></defs><desc>Generated with Avocode.</desc><g><g><title>Group 422</title><g><title>Group 421</title><g><title>Rectangle 309</title></g><g clip-path="url(#clip-bb13f9be-3e4a-41e1-856a-208e7c01d29a)"><title>Path 599</title><path d="M0.91206,55.01175c-0.23074,0 -0.45031,-0.08932 -0.61406,-0.25183c-0.16747,-0.16499 -0.26299,-0.38952 -0.26299,-0.62398v-26.02484c0,-0.48256 0.39448,-0.8758 0.87705,-0.8758h11.94371c0.45155,0 0.82867,0.34362 0.87208,0.79145c0.99117,10.26157 3.63224,21.33568 6.16786,21.33568c0.28656,-0.35231 0.21585,-2.66836 0.16995,-4.19916c-0.04838,-1.61143 -0.09924,-3.27869 0.09304,-4.72142c1.01847,-7.64159 3.51439,-11.41897 7.32898,-11.19444c0.4255,0.02481 0.83611,0.10669 1.22067,0.24934c0.45403,0.16499 0.68849,0.66864 0.52226,1.12267c-0.16623,0.45527 -0.66864,0.69097 -1.12391,0.52226c-0.22329,-0.08187 -0.46395,-0.13026 -0.71702,-0.1439c-3.49578,-0.21337 -4.89136,5.1556 -5.49302,9.67604c-0.17491,1.30131 -0.12653,2.89413 -0.07939,4.4361c0.07939,2.56539 0.13894,4.59116 -0.75548,5.51411c-0.31261,0.3213 -0.71454,0.49001 -1.16609,0.49001c-5.05139,0 -7.19873,-16.00765 -7.83264,-22.12713h-10.27522v0v24.25959v0l50.42336,-0.72943v0v-23.53016v0h-10.54689c-0.25431,1.98731 -0.96637,7.39598 -1.67098,11.2267c-0.57808,3.13727 -2.27884,10.45261 -5.5873,10.64737c-0.63018,0.0397 -1.341,0.00745 -1.85954,-0.49249c-0.65499,-0.63267 -0.63142,-1.58538 -0.59048,-3.3159c0.01985,-0.80634 0.04466,-1.8186 0.01365,-3.07773c-0.09304,-3.71412 -0.47512,-6.70501 -1.13508,-8.88832c-0.14018,-0.46395 0.12157,-0.95272 0.58553,-1.09166c0.45899,-0.14266 0.95148,0.12033 1.09166,0.58429c0.70585,2.33466 1.11274,5.48061 1.2095,9.35103c0.03349,1.2951 0.00744,2.3359 -0.01365,3.16457c-0.02109,0.882 -0.04218,1.79255 0.06947,2.02453c0.0062,-0.01613 0.08064,0.00124 0.26547,0.00124c0.06947,0 0.1563,-0.00248 0.26051,-0.00868c1.12763,-0.06699 2.92018,-3.53175 3.96594,-9.21581c0.86588,-4.6966 1.74417,-11.81966 1.75286,-11.89161c0.05334,-0.43914 0.42673,-0.76912 0.8696,-0.76912h12.19554c0.4838,0 0.87581,0.39324 0.87581,0.8758v25.2706c0,0.47761 -0.38456,0.86837 -0.8634,0.87581l-52.17498,0.75424v0z" fill="#23376e" fill-opacity="1"></path></g><g clip-path="url(#clip-bb13f9be-3e4a-41e1-856a-208e7c01d29a)"><title>Path 600</title><path d="M28.06205,35.69687c1.83845,0.2543 4.98316,-3.89027 7.06103,-7.98274c1.26161,-2.48228 2.30861,-3.1993 4.04285,-4.38772c0.26175,-0.17739 0.54211,-0.37091 0.84479,-0.58304c2.71054,-1.99227 5.06504,-6.05745 5.34664,-9.24683c0.14018,-1.57546 -0.2084,-2.8135 -1.03459,-3.68062c-3.01446,-3.16456 -8.01251,-2.59392 -8.05965,-2.584c-0.3858,0.0397 -0.76044,-0.16995 -0.91302,-0.52846c-0.02108,-0.04714 -2.08779,-4.7822 -5.91851,-4.49688c-6.02644,0.30889 -7.89218,7.11189 -7.82147,10.16853c0.02977,1.27649 0.21337,2.18207 0.37463,2.98221c0.2754,1.36705 0.51482,2.54803 -0.50365,4.20288c-3.95725,8.87095 -2.80853,11.64475 -2.35078,12.29478c0.74803,-0.42178 2.22177,-2.97848 3.12611,-4.54774c2.14857,-3.729 4.37035,-7.58205 6.86503,-6.20756c3.97462,2.22921 1.76898,7.35876 0.15879,11.10388c-0.50241,1.16981 -1.24672,2.90033 -1.21819,3.4933M28.19231,37.45841c-0.20469,0 -0.40937,-0.02357 -0.61282,-0.06947c-0.6153,-0.14018 -0.9217,-0.51854 -1.06932,-0.81006c-0.55079,-1.08421 0.16623,-2.75519 1.16113,-5.06752c1.74665,-4.06146 2.99709,-7.53491 0.59793,-8.87963c-0.98745,-0.54459 -3.26753,3.42135 -4.4944,5.55008c-1.90171,3.29978 -3.39902,5.89866 -5.19405,5.42727c-0.06823,-0.01737 -0.13398,-0.04466 -0.196,-0.07816c-0.67856,-0.37339 -3.78854,-2.83831 1.54941,-14.78698c0.71082,-1.16857 0.59172,-1.75533 0.33246,-3.04051c-0.16623,-0.82619 -0.37464,-1.85582 -0.40813,-3.28737c-0.08684,-3.73892 2.11136,-11.58272 9.46392,-11.95736c4.19791,-0.31509 6.58591,3.49454 7.36372,4.98564c1.62136,-0.06699 5.95325,0.06327 8.90445,3.16208c1.17229,1.23059 1.69579,2.976 1.51343,5.04519c-0.32626,3.69054 -2.93631,8.21223 -6.0711,10.51464c-0.32378,0.22825 -0.61034,0.42426 -0.87581,0.60661c-1.65609,1.13383 -2.41281,1.65113 -3.47097,3.7352c-0.79021,1.55561 -4.74622,8.9491 -8.49383,8.95034" fill="#23376e" fill-opacity="1"></path></g><g clip-path="url(#clip-bb13f9be-3e4a-41e1-856a-208e7c01d29a)"><title>Path 601</title><path d="M23.58254,15.14768v0c0,0 -0.78153,-10.82973 6.81045,-11.05302c3.79599,0 4.24009,4.46587 1.61764,5.52651c-2.62246,1.06064 -7.19997,-1.50723 -8.42808,5.52651" fill="#ffffff" fill-opacity="1"></path></g></g></g></g></svg>