<?xml version="1.0" encoding="UTF-8"?>
<svg id="SVGDoc" width="49" height="67" xmlns="http://www.w3.org/2000/svg" version="1.1" xmlns:xlink="http://www.w3.org/1999/xlink" xmlns:avocode="https://avocode.com/" viewBox="0 0 49 67"><defs></defs><desc>Generated with Avocode.</desc><g><g><title>Group 235</title><g><title>Path 379</title><path d="M14.18327,66.34531c-0.10405,0 -0.20953,-0.01852 -0.31216,-0.05988c-0.43901,-0.17245 -0.65567,-0.66849 -0.4832,-1.10895l6.56098,-16.72101v0l0.54307,-0.03421c0.0171,-0.00143 1.90429,-0.13684 3.73875,-0.9935c2.292,-1.07043 3.45795,-2.75381 3.4665,-5.00447c-0.16962,-2.76949 -1.03197,-4.68092 -2.56567,-5.68437c-2.63408,-1.72185 -6.50539,-0.32642 -6.54388,-0.31216l-0.61576,0.22664v0l-0.37915,-0.53593c-0.02566,-0.03564 -2.65262,-3.69171 -6.00936,-4.06659c-1.51659,-0.16818 -2.99185,0.37488 -4.38729,1.61494c-1.56221,1.73753 -2.24211,3.45796 -2.02403,5.10995c0.36347,2.74384 3.0845,4.52556 3.11301,4.54408l0.59438,0.38342v0l-0.26227,0.6571v0l-6.1576,15.29138c-0.17675,0.43759 -0.6742,0.64996 -1.11321,0.47321c-0.43759,-0.17673 -0.64997,-0.67419 -0.47322,-1.11322l5.90674,-14.67418c-0.99491,-0.7925 -2.94482,-2.65547 -3.30258,-5.32091c-0.29505,-2.18938 0.53879,-4.38586 2.47872,-6.52963l0.06272,-0.06271c1.78599,-1.60355 3.72307,-2.30055 5.76135,-2.07106c3.31541,0.37486 5.87966,3.12299 6.82183,4.27754c1.37548,-0.3877 4.7807,-1.07188 7.45754,0.67134c2.02118,1.31705 3.14865,3.68744 3.3482,7.04561l0.00142,0.05132c0,2.95906 -1.55651,5.24251 -4.4999,6.60088c-1.49522,0.68988 -2.9776,0.965 -3.75443,1.06903l-6.17471,15.73325c-0.13256,0.33783 -0.45469,0.54309 -0.79678,0.54309z" fill="#23376e" fill-opacity="1"></path></g><g><title>Path 380</title><path d="M29.92934,34.99425c-1.1631,0 -2.23355,-0.26227 -3.20566,-0.78966c-2.98187,-1.61495 -4.04235,-5.21686 -4.35165,-6.61514c-1.34555,-0.39768 -4.77214,-1.65628 -6.44411,-4.52841c-1.04337,-1.79026 -1.21442,-3.86418 -0.51028,-6.16045l0.01996,-0.06414v0l0.0285,-0.05987c1.24435,-2.55712 2.95195,-4.16066 5.07574,-4.76644c2.48586,-0.70841 4.82631,0.17389 5.90104,0.69843l11.96741,-12.06719c0.33211,-0.33496 0.87376,-0.33781 1.21014,-0.00428c0.33497,0.33211 0.33781,0.87375 0.00571,1.21014l-12.90104,13.00794v0l-0.58012,-0.36632c-0.02281,-0.01425 -2.56567,-1.57218 -5.1456,-0.82814c-1.61494,0.46467 -2.94908,1.74465 -3.96394,3.80574c-0.53595,1.79312 -0.41194,3.38383 0.36916,4.72795c1.68051,2.89493 5.854,3.86275 5.89533,3.87273l0.57301,0.12971v0l0.08552,0.58155c0.00571,0.04133 0.67848,4.35593 3.58766,5.92527c1.64345,0.888 3.75585,0.74832 6.27592,-0.41478c1.90856,-0.9778 2.77805,-2.70393 2.58704,-5.12848c-0.1525,-1.93566 -0.92506,-3.56913 -0.93219,-3.58481l-0.26227,-0.54877v0l11.61822,-11.5113c0.33495,-0.33211 0.87659,-0.33069 1.21011,0.0057c0.33212,0.33496 0.32925,0.8766 -0.00569,1.20871l-10.77581,10.67746c0.28508,0.72979 0.73265,2.08389 0.8538,3.61901c0.24801,3.14152 -0.97353,5.49195 -3.53064,6.79474l-0.02994,0.01426c-1.66909,0.77254 -3.21562,1.15882 -4.62532,1.15882z" fill="#23376e" fill-opacity="1"></path></g><g><title>Path 381</title><path d="M28.55101,21.29215c-0.01996,0 -0.03992,0 -0.05986,-0.00142c-0.30646,-0.02138 -0.57727,-0.20526 -0.71127,-0.48178c-1.03195,-2.14375 -4.78354,-1.48666 -4.82202,-1.47954c-0.46326,0.08553 -0.90939,-0.22235 -0.9949,-0.6856c-0.08554,-0.46325 0.2195,-0.90939 0.68417,-0.9949c0.1796,-0.03279 3.8656,-0.68846 5.88393,1.30706c2.2692,-3.21278 4.53267,-5.57034 4.63673,-5.67868c0.32784,-0.33923 0.86948,-0.34921 1.20871,-0.02138c0.33923,0.32784 0.35065,0.86948 0.02281,1.20872c-0.02708,0.02851 -2.74956,2.86642 -5.13847,6.44837c-0.15678,0.23662 -0.42474,0.37915 -0.70982,0.37915z" fill="#ffffff" fill-opacity="1"></path></g><g><title>Path 382</title><path d="M13.79842,52.9938c-0.10262,0 -0.20667,-0.01849 -0.30788,-0.05701c-0.44044,-0.16962 -0.65995,-0.66565 -0.49033,-1.10608c0.01426,-0.03705 1.42252,-3.7088 2.23213,-7.9379c0.05844,-0.30215 0.27367,-0.54877 0.56302,-0.64853c0.29078,-0.09836 0.61292,-0.03421 0.84241,0.16818c1.78313,1.57504 4.98595,-0.48605 5.01872,-0.50742c0.39483,-0.258 0.92506,-0.14825 1.18306,0.24658c0.25942,0.39484 0.14966,0.92365 -0.24374,1.18304c-0.15251,0.09979 -3.29687,2.13379 -5.93097,1.07761c-0.84525,3.84134 -2.01547,6.8931 -2.06963,7.03275c-0.13113,0.3407 -0.45469,0.54877 -0.79678,0.54877z" fill="#ffffff" fill-opacity="1"></path></g><g><title>Path 383</title><path d="M30.24437,27.31293v0l-1.94992,2.3091v0c0,0 3.64325,0.97496 4.72083,0z" fill="#ffffff" fill-opacity="1"></path></g><g><title>Path 384</title><path d="M11.46366,38.7558v0l1.43678,-3.54062v0c0,0 -3.38668,0.05133 -4.77214,2.10385z" fill="#ffffff" fill-opacity="1"></path></g></g></g></svg>