<?xml version="1.0" encoding="UTF-8"?>
<svg id="SVGDoc" width="54" height="59" xmlns="http://www.w3.org/2000/svg" version="1.1" xmlns:xlink="http://www.w3.org/1999/xlink" xmlns:avocode="https://avocode.com/" viewBox="0 0 54 59"><defs><clipPath id="clip-c44451fb-898f-43c5-b11d-9e9606afd0cf"><path d="M0.30786,58.56408v0v-57.9842v0h53.38405v0v57.9842v0z" ></path></clipPath></defs><desc>Generated with Avocode.</desc><g><g><title>Group 426</title><g><title>Group 425</title><g><title>Rectangle 311</title></g><g clip-path="url(#clip-c44451fb-898f-43c5-b11d-9e9606afd0cf)"><title>Path 615</title><path d="M19.68914,58.56431c-0.44784,0 -0.81071,-0.36287 -0.81071,-0.81071v-2.28975c0,-2.58371 -2.10372,-4.68628 -4.68743,-4.68628h-1.80975c-2.76859,0 -5.02044,-2.25185 -5.02044,-5.02044l-0.26296,-6.10789c-0.01608,-0.38698 -0.13665,-0.76478 -0.34449,-1.08975l-4.6679,-0.50526c-0.20555,-0.02297 -0.39502,-0.12287 -0.53052,-0.28019c-0.96688,-1.13683 -1.40324,-2.63194 -1.19769,-4.10523c0.18947,-1.35042 1.21492,-3.30485 2.63538,-6.00684c1.69377,-3.22562 4.01451,-7.64204 5.72665,-12.77846c2.22429,-6.67401 8.32299,-11.76335 16.31412,-13.61558c7.98998,-1.84879 15.99719,0.09416 20.9005,5.0767c5.46828,5.55785 8.26787,12.91396 7.68108,20.1805c-0.5845,7.23209 -4.35671,13.59376 -10.90556,18.39028c-0.36172,0.26756 -0.86813,0.18832 -1.13338,-0.17455c-0.26526,-0.36172 -0.18718,-0.86813 0.17455,-1.13224c6.15841,-4.51173 9.70212,-10.46575 10.24757,-17.21555c0.54889,-6.79573 -2.08305,-13.68907 -7.22061,-18.91046c-4.51059,-4.58408 -11.93445,-6.36052 -19.37783,-4.6346c-7.43649,1.72362 -13.09769,6.41449 -15.14169,12.54879c-1.75348,5.26044 -4.10982,9.74576 -5.83,13.01961c-1.293,2.46199 -2.31386,4.40609 -2.46429,5.47747c-0.12746,0.91291 0.10335,1.83731 0.63617,2.58486l4.67939,0.50641c0.2067,0.02296 0.39617,0.12172 0.53052,0.28019c0.55004,0.64765 0.87272,1.4687 0.90832,2.31501l0.26411,6.14119c0,1.90965 1.52496,3.43461 3.39901,3.43461h1.80975c3.4794,0 6.31,2.82945 6.31,6.3077v2.28975c0,0.44784 -0.36402,0.81071 -0.81186,0.81071" fill="#23376e" fill-opacity="1"></path></g><g clip-path="url(#clip-c44451fb-898f-43c5-b11d-9e9606afd0cf)"><title>Path 616</title><path d="M30.179,22.28557c-1.43539,0 -2.60323,1.16784 -2.60323,2.60323c0,1.4354 1.16784,2.60323 2.60323,2.60323c1.43539,0 2.60208,-1.16784 2.60208,-2.60323c0,-1.43539 -1.16669,-2.60323 -2.60208,-2.60323M30.179,29.11346c-2.32994,0 -4.2258,-1.89472 -4.2258,-4.22465c0,-2.32993 1.89587,-4.22465 4.2258,-4.22465c2.32993,0 4.22465,1.89472 4.22465,4.22465c0,2.32993 -1.89472,4.22465 -4.22465,4.22465" fill="#23376e" fill-opacity="1"></path></g><g clip-path="url(#clip-c44451fb-898f-43c5-b11d-9e9606afd0cf)"><title>Path 617</title><path d="M30.179,16.1972c-4.79192,0 -8.69045,3.89968 -8.69045,8.69045c0,4.79192 3.89853,8.6916 8.69045,8.6916c4.79192,0 8.68931,-3.89968 8.68931,-8.6916c0,-4.79077 -3.89738,-8.69045 -8.68931,-8.69045M30.179,35.20068c-5.68646,0 -10.31303,-4.62542 -10.31303,-10.31302c0,-5.68646 4.62657,-10.31188 10.31303,-10.31188c5.68646,0 10.31187,4.62542 10.31187,10.31188c0,5.68761 -4.62541,10.31302 -10.31187,10.31302" fill="#23376e" fill-opacity="1"></path></g><g clip-path="url(#clip-c44451fb-898f-43c5-b11d-9e9606afd0cf)"><title>Path 618</title><path d="M30.179,10.45562c-7.95783,0 -14.43204,6.47535 -14.43204,14.43203c0,7.95783 6.47421,14.43318 14.43204,14.43318c7.95783,0 14.43089,-6.47535 14.43089,-14.43318c0,-7.95668 -6.47306,-14.43203 -14.43089,-14.43203M30.179,40.94226c-8.85237,0 -16.05461,-7.20223 -16.05461,-16.0546c0,-8.85237 7.20224,-16.05345 16.05461,-16.05345c8.85122,0 16.05346,7.20109 16.05346,16.05345c0,8.85237 -7.20224,16.0546 -16.05346,16.0546" fill="#23376e" fill-opacity="1"></path></g><g clip-path="url(#clip-c44451fb-898f-43c5-b11d-9e9606afd0cf)"><title>Path 619</title><path d="M31.28597,5.70274v0c0,0 7.58348,-3.21643 11.39933,2.6216c3.81586,5.83804 -3.94791,-3.80667 -11.39933,-2.6216" fill="#ffffff" fill-opacity="1"></path></g></g></g></g></svg>