<?xml version="1.0" encoding="UTF-8"?>
<svg id="SVGDoc" width="67" height="59" xmlns="http://www.w3.org/2000/svg" version="1.1" xmlns:xlink="http://www.w3.org/1999/xlink" xmlns:avocode="https://avocode.com/" viewBox="0 0 67 59"><defs><clipPath id="clip-4214e342-a628-40f4-9e38-e6e46b659609"><path d="M0.38562,58.10264v0v-57.70615v0h65.97207v0v57.70615v0z" ></path></clipPath></defs><desc>Generated with Avocode.</desc><g><g><title>Group 435</title><g><title>Group 434</title><g><title>Rectangle 324</title></g><g clip-path="url(#clip-4214e342-a628-40f4-9e38-e6e46b659609)"><title>Path 650</title><path d="M12.61035,58.10263c-0.28394,0 -0.56584,-0.00715 -0.84365,-0.01941c-6.47648,-0.28087 -10.53743,-1.38395 -10.70698,-1.43094c-0.26249,-0.07251 -0.46166,-0.28598 -0.51477,-0.55357c-0.03575,-0.17772 -0.84161,-4.53385 1.53818,-21.61517c1.31348,-9.42516 6.03831,-17.63796 12.63736,-21.96856c3.04265,-1.99473 6.12309,-2.83327 8.23732,-2.25007c5.61445,1.55962 4.37247,10.14216 4.31731,10.50679c-0.06026,0.39323 -0.43408,0.65572 -0.82016,0.60465c-0.39425,-0.06026 -0.66491,-0.42795 -0.60567,-0.82118c0.01226,-0.0766 1.10716,-7.68169 -3.27756,-8.90018c-1.69138,-0.47289 -4.39902,0.32071 -7.05866,2.06622c-6.25791,4.10589 -10.74477,11.94181 -12.00105,20.96149c-1.94264,13.9396 -1.73836,19.25376 -1.60661,20.69389c1.23177,0.29007 4.84638,1.04486 9.92257,1.26649c5.79012,0.24717 12.20634,-2.03865 13.03365,-9.20557c0.83139,-7.19859 1.11737,-14.35734 1.12044,-14.42781c0.0143,-0.39833 0.34726,-0.74049 0.74764,-0.69249c0.39833,0.01532 0.70883,0.35033 0.69249,0.74764c-0.00204,0.07252 -0.29007,7.28336 -1.12861,14.53812c-0.89778,7.78894 -7.74706,10.49862 -13.68324,10.49964" fill="#23376e" fill-opacity="1"></path></g><g clip-path="url(#clip-4214e342-a628-40f4-9e38-e6e46b659609)"><title>Path 651</title><path d="M55.25544,57.93922c-3.20709,0 -6.60007,-0.49945 -9.2832,-2.0887c-2.44107,-1.44727 -4.00478,-3.62891 -4.64619,-6.48567c-1.83438,-11.13187 -1.20215,-15.68205 -1.17458,-15.86998c0.05822,-0.39425 0.43,-0.66695 0.8171,-0.60771c0.39322,0.0572 0.66593,0.42284 0.60873,0.81607c-0.00511,0.04494 -0.61691,4.56959 1.16333,15.38789c0.54337,2.41043 1.88034,4.28055 3.96494,5.5164c5.77888,3.4277 15.68307,1.22462 17.98114,0.64346c1.60048,-24.51891 -5.83506,-34.98689 -10.43325,-39.05499c-3.9772,-3.51861 -7.97585,-4.30199 -9.69583,-3.96494c-0.8845,0.17159 -1.55145,0.61588 -2.03967,1.35535c-1.625,2.46149 -0.63836,7.15876 -0.62712,7.20574c0.08375,0.38914 -0.16342,0.77317 -0.55256,0.85693c-0.39119,0.09192 -0.77216,-0.16138 -0.85795,-0.55154c-0.04699,-0.21653 -1.12453,-5.33255 0.83241,-8.30268c0.7027,-1.06733 1.70261,-1.73326 2.97013,-1.98043c2.39613,-0.4637 6.836,0.68329 10.92555,4.30097c5.89839,5.2202 12.57505,16.5257 10.88163,40.75148c-0.02043,0.30232 -0.22777,0.55971 -0.51886,0.64346c-0.3156,0.08988 -5.06597,1.42889 -10.31579,1.42889" fill="#23376e" fill-opacity="1"></path></g><g clip-path="url(#clip-4214e342-a628-40f4-9e38-e6e46b659609)"><title>Path 652</title><path d="M9.40735,41.35121c-0.08477,0 -0.16955,-0.01532 -0.2533,-0.04596c-0.3728,-0.13891 -0.56175,-0.5546 -0.42182,-0.9274c2.94868,-7.90844 19.59082,-18.31922 22.31174,-19.97996v-19.28032c0,-0.39731 0.32275,-0.72108 0.72211,-0.72108c0.39731,0 0.72109,0.32377 0.72109,0.72108v19.68683c0,0.2533 -0.1338,0.48821 -0.35135,0.61793c-0.191,0.11541 -19.08422,11.49547 -22.05435,19.46008c-0.10622,0.28905 -0.38301,0.46881 -0.6741,0.46881" fill="#23376e" fill-opacity="1"></path></g><g clip-path="url(#clip-4214e342-a628-40f4-9e38-e6e46b659609)"><title>Path 653</title><path d="M16.2556,30.86383c-4.71973,0 -6.51223,-2.49417 -6.59802,-2.61776c-0.22777,-0.32786 -0.14606,-0.77726 0.1818,-1.004c0.32582,-0.22674 0.77215,-0.14503 0.99992,0.1767c0.08988,0.12563 2.08972,2.77096 7.84,1.7833c0.39323,-0.07456 0.76602,0.19406 0.83241,0.58729c0.06843,0.39323 -0.19508,0.76602 -0.58729,0.83344c-0.97847,0.16853 -1.86604,0.24104 -2.66883,0.24104" fill="#23376e" fill-opacity="1"></path></g><g clip-path="url(#clip-4214e342-a628-40f4-9e38-e6e46b659609)"><title>Path 654</title><path d="M58.48499,41.35121c-0.29211,0 -0.56788,-0.17976 -0.67512,-0.46881c-2.96911,-7.96461 -21.86131,-19.34467 -22.05231,-19.46008c-0.21755,-0.12971 -0.35135,-0.36463 -0.35135,-0.61793v-19.68683c0,-0.39731 0.32377,-0.72108 0.72108,-0.72108c0.39833,0 0.72108,0.32377 0.72108,0.72108v19.28032c2.72194,1.66074 19.36306,12.07152 22.31174,19.97996c0.13993,0.37383 -0.05005,0.78849 -0.42284,0.9274c-0.08375,0.03064 -0.16852,0.04596 -0.25228,0.04596" fill="#23376e" fill-opacity="1"></path></g><g clip-path="url(#clip-4214e342-a628-40f4-9e38-e6e46b659609)"><title>Path 655</title><path d="M51.63572,30.86383c-0.8028,0 -1.68934,-0.07251 -2.66883,-0.24104c-0.3922,-0.06741 -0.65571,-0.44021 -0.58728,-0.83344c0.06639,-0.39323 0.43816,-0.66082 0.83241,-0.58728c5.76459,0.98766 7.7583,-1.66993 7.84103,-1.7833c0.23083,-0.32173 0.67921,-0.39935 1.00298,-0.16955c0.32275,0.22878 0.40344,0.67104 0.17772,0.99685c-0.0858,0.12359 -1.87931,2.61776 -6.59803,2.61776" fill="#23376e" fill-opacity="1"></path></g><g clip-path="url(#clip-4214e342-a628-40f4-9e38-e6e46b659609)"><title>Path 656</title><path d="M57.77923,47.53762c-0.25228,0 -0.49638,-0.13277 -0.62916,-0.36667c-4.82391,-8.5662 -20.67857,-19.72053 -23.20033,-21.45992c-12.47292,6.02606 -23.84787,21.37719 -23.96124,21.53243c-0.23491,0.31969 -0.68636,0.39016 -1.00809,0.15423c-0.32173,-0.23594 -0.39016,-0.68738 -0.15525,-1.00809c0.48209,-0.65469 11.92955,-16.10796 24.88455,-22.16159c0.22777,-0.10724 0.49945,-0.08579 0.70781,0.05515c0.75683,0.50966 18.60214,12.61386 23.98882,22.17896c0.19611,0.34726 0.07354,0.78747 -0.27372,0.98255c-0.11235,0.06332 -0.23389,0.09294 -0.35339,0.09294" fill="#23376e" fill-opacity="1"></path></g><g clip-path="url(#clip-4214e342-a628-40f4-9e38-e6e46b659609)"><title>Path 657</title><path d="M18.80391,46.55405c-0.26351,0 -0.51784,-0.14503 -0.64448,-0.39629c-2.22862,-4.40209 -1.20827,-8.88078 -1.16436,-9.06973c0.0909,-0.38607 0.47596,-0.62609 0.86612,-0.53519c0.3871,0.0909 0.62712,0.47902 0.53826,0.86612c-0.01021,0.04085 -0.93659,4.16819 1.0469,8.08922c0.17976,0.35441 0.03779,0.78849 -0.31867,0.96825c-0.10316,0.05311 -0.21551,0.07763 -0.32377,0.07763" fill="#23376e" fill-opacity="1"></path></g><g clip-path="url(#clip-4214e342-a628-40f4-9e38-e6e46b659609)"><title>Path 658</title><path d="M48.35611,46.55405c-0.1338,0 -0.26964,-0.03677 -0.39016,-0.1144c-0.33399,-0.21653 -0.43102,-0.66286 -0.21551,-0.99787c2.57179,-3.98639 0.69861,-8.34252 0.67921,-8.38644c-0.16138,-0.36361 0.00408,-0.78951 0.36871,-0.94987c0.36156,-0.16138 0.78952,0.00306 0.94987,0.36769c0.09192,0.20631 2.20308,5.11806 -0.78441,9.75098c-0.13891,0.21347 -0.37076,0.32991 -0.60772,0.32991" fill="#23376e" fill-opacity="1"></path></g><g clip-path="url(#clip-4214e342-a628-40f4-9e38-e6e46b659609)"><title>Path 659</title><path d="M21.55241,14.01946c3.58499,0.04086 3.58499,6.44482 -0.45962,6.85337c-3.86076,0.38812 -5.23961,-1.9406 -10.87755,1.22564c0.98051,-1.78739 4.87191,-8.07901 11.33716,-8.07901" fill="#ffffff" fill-opacity="1"></path></g></g></g></g></svg>